<svg width="130" height="112" viewBox="0 0 130 112" fill="none" xmlns="http://www.w3.org/2000/svg">
<path d="M49.4504 0.847636C49.6942 0.329591 50.2084 0 50.7728 0H76.355C77.4346 0 78.1437 1.14775 77.677 2.13903L39.6137 82.986C39.1476 83.9761 37.8271 84.1324 37.1504 83.2777L21.1071 63.0172C20.7523 62.5692 20.682 61.9534 20.9264 61.4342L49.4504 0.847636Z" fill="#0C4471"/>
<path d="M70.3761 69.191C74.9647 69.191 78.6844 65.4024 78.6844 60.7288C78.6844 56.0553 74.9647 52.2666 70.3761 52.2666C65.7876 52.2666 62.0679 56.0553 62.0679 60.7288C62.0679 65.4024 65.7876 69.191 70.3761 69.191Z" fill="#0092FF"/>
<path d="M127.556 107.52C128.906 107.52 130 106.405 130 105.031C130 103.656 128.906 102.542 127.556 102.542C126.207 102.542 125.113 103.656 125.113 105.031C125.113 106.405 126.207 107.52 127.556 107.52Z" fill="#0092FF"/>
<path d="M9.76458 103.99H2.62142L1.05556 107.52H0.0878906L5.75315 94.9758H6.65045L12.3157 107.52H11.348L9.76458 103.99ZM9.43029 103.219L6.193 95.9793L2.9733 103.219H9.43029ZM14.5515 94.9758H15.4488V106.695H22.5392V107.52H14.5515V94.9758ZM26.0497 95.8001H21.616V94.9758H31.3807V95.8001H26.947V107.52H26.0497V95.8001ZM33.6059 94.9758H34.5032V107.52H33.6059V94.9758ZM48.8234 94.9758V107.52H48.0844L39.6921 96.6244V107.52H38.7948V94.9758H39.5513L47.9261 105.871V94.9758H48.8234ZM58.5405 95.8001V101.158H65.103V101.983H58.5405V107.52H57.6432V94.9758H65.8772V95.8001H58.5405ZM68.289 98.1655H69.1687V107.52H68.289V98.1655ZM68.7289 95.8897C68.5295 95.8897 68.3594 95.824 68.2186 95.6926C68.0779 95.5492 68.0075 95.376 68.0075 95.1729C68.0075 94.9698 68.0779 94.7966 68.2186 94.6532C68.3594 94.5099 68.5295 94.4382 68.7289 94.4382C68.9283 94.4382 69.0983 94.5099 69.2391 94.6532C69.3798 94.7846 69.4502 94.9519 69.4502 95.155C69.4502 95.3581 69.3798 95.5313 69.2391 95.6747C69.0983 95.818 68.9283 95.8897 68.7289 95.8897ZM77.3631 98.0939C78.5126 98.0939 79.4216 98.4343 80.0902 99.1153C80.7588 99.7963 81.093 100.776 81.093 102.054V107.52H80.2133V102.126C80.2133 101.075 79.9494 100.274 79.4216 99.7246C78.9055 99.175 78.1783 98.9003 77.24 98.9003C76.1609 98.9003 75.3105 99.2288 74.6888 99.8859C74.0672 100.543 73.7563 101.427 73.7563 102.538V107.52H72.8766V98.1655H73.7212V100.191C74.0378 99.5334 74.507 99.0197 75.1287 98.6494C75.7621 98.279 76.5069 98.0939 77.3631 98.0939ZM89.2713 106.928C89.0484 107.143 88.7669 107.311 88.4268 107.43C88.0984 107.538 87.7524 107.591 87.3888 107.591C86.5912 107.591 85.9754 107.37 85.5414 106.928C85.1074 106.474 84.8904 105.847 84.8904 105.047V98.9361H83.2014V98.1655H84.8904V96.1227H85.7701V98.1655H88.6907V98.9361H85.7701V104.957C85.7701 105.567 85.9109 106.032 86.1924 106.355C86.4856 106.666 86.9137 106.821 87.4767 106.821C88.0515 106.821 88.5265 106.648 88.9018 106.301L89.2713 106.928ZM99.1572 103.058H91.2575C91.2809 103.786 91.4627 104.438 91.8029 105.011C92.143 105.572 92.6005 106.009 93.1752 106.319C93.7617 106.63 94.4185 106.785 95.1457 106.785C95.7439 106.785 96.2952 106.678 96.7996 106.463C97.3157 106.236 97.7438 105.907 98.0839 105.477L98.5942 106.068C98.1954 106.558 97.691 106.934 97.0811 107.197C96.4829 107.46 95.8319 107.591 95.1282 107.591C94.2133 107.591 93.3981 107.388 92.6826 106.982C91.9671 106.576 91.4041 106.015 90.9936 105.298C90.5948 104.581 90.3954 103.763 90.3954 102.843C90.3954 101.935 90.583 101.122 90.9584 100.406C91.3454 99.6768 91.8733 99.1093 92.5418 98.7031C93.2104 98.297 93.9611 98.0939 94.7939 98.0939C95.6266 98.0939 96.3715 98.297 97.0283 98.7031C97.6969 99.0974 98.2188 99.6529 98.5942 100.37C98.9812 101.087 99.1748 101.899 99.1748 102.807L99.1572 103.058ZM94.7939 98.8823C94.1488 98.8823 93.5681 99.0317 93.0521 99.3303C92.536 99.6171 92.1196 100.029 91.8029 100.567C91.4979 101.092 91.322 101.69 91.2751 102.359H98.3127C98.2775 101.69 98.1015 101.092 97.7848 100.567C97.4681 100.041 97.0518 99.629 96.5357 99.3303C96.0196 99.0317 95.439 98.8823 94.7939 98.8823ZM105.538 107.591C104.647 107.591 103.849 107.388 103.146 106.982C102.442 106.576 101.891 106.015 101.492 105.298C101.093 104.569 100.894 103.751 100.894 102.843C100.894 101.923 101.093 101.104 101.492 100.388C101.891 99.6589 102.442 99.0974 103.146 98.7031C103.849 98.297 104.647 98.0939 105.538 98.0939C106.277 98.0939 106.946 98.2432 107.544 98.5419C108.154 98.8286 108.647 99.2527 109.022 99.8142L108.371 100.298C108.043 99.8321 107.632 99.4857 107.139 99.2587C106.659 99.0197 106.125 98.9003 105.538 98.9003C104.823 98.9003 104.178 99.0675 103.603 99.402C103.04 99.7246 102.594 100.185 102.266 100.782C101.949 101.379 101.791 102.066 101.791 102.843C101.791 103.619 101.949 104.306 102.266 104.903C102.594 105.501 103.04 105.967 103.603 106.301C104.178 106.624 104.823 106.785 105.538 106.785C106.125 106.785 106.659 106.672 107.139 106.445C107.632 106.206 108.043 105.853 108.371 105.387L109.022 105.871C108.647 106.433 108.154 106.863 107.544 107.161C106.946 107.448 106.277 107.591 105.538 107.591ZM115.987 98.0939C117.137 98.0939 118.046 98.4343 118.714 99.1153C119.383 99.7963 119.717 100.776 119.717 102.054V107.52H118.838V102.126C118.838 101.075 118.574 100.274 118.046 99.7246C117.53 99.175 116.802 98.9003 115.864 98.9003C114.785 98.9003 113.935 99.2288 113.313 99.8859C112.691 100.543 112.381 101.427 112.381 102.538V107.52H111.501V94.2231H112.381V100.119C112.697 99.4737 113.166 98.9779 113.788 98.6315C114.41 98.2731 115.143 98.0939 115.987 98.0939Z" fill="#0C4471"/>
</svg>
